# xmcd
#
# Track frame offsets: 
#        150
#        8942
#        21461
#        33890
#        47784
#        59862
#        75232
#        86074
#        100329
#        111791
#
# Disc length: 1576 seconds
#
# Revision: 0
# Processed by: cddbd v1.5.2PL0 Copyright (c) Steve Scherf et al.
# Submitted via: ExactAudioCopy v1.2
#
DISCID=7c06260a
DTITLE=Leo Bud Welch - The Angels in Heaven Done Signed My Name
DYEAR=2019
DGENRE=Blues
TTITLE0=I Know I Been Changed
TTITLE1=Jesus Is on the Mainline
TTITLE2=Don't Let the Devil Ride
TTITLE3=I Come to Praise His Name
TTITLE4=Walk With Me Lord
TTITLE5=Right on Time
TTITLE6=I Want To Be at the Meeting
TTITLE7=I Wanna Die Easy
TTITLE8=Let It Shine
TTITLE9=Sweet Home
EXTD=
EXTT0=
EXTT1=
EXTT2=
EXTT3=
EXTT4=
EXTT5=
EXTT6=
EXTT7=
EXTT8=
EXTT9=
PLAYORDER=
